<svg width="100" height="100" viewBox="0 0 100 100" fill="none" xmlns="http://www.w3.org/2000/svg">
<circle cx="50" cy="50" r="50" fill="#EEEEEE"/>
<g clip-path="url(#clip0_4_75)">
<path d="M83.3333 50.2027C83.3333 66.8388 71.1278 80.6305 55.1944 83.1333V59.9027H62.9417L64.4167 50.2916H55.1944V44.0555C55.1944 41.4249 56.4833 38.8638 60.6111 38.8638H64.8028V30.6805C64.8028 30.6805 60.9972 30.0305 57.3611 30.0305C49.7667 30.0305 44.8055 34.6333 44.8055 42.9638V50.2888H36.3639V59.8999H44.8055V83.1305C28.875 80.6249 16.6667 66.8361 16.6667 50.2027C16.6667 31.7944 31.5917 16.8694 50 16.8694C68.4083 16.8694 83.3333 31.7916 83.3333 50.2027Z" fill="black"/>
</g>
<defs>
<clipPath id="clip0_4_75">
<rect width="66.6667" height="66.6667" fill="white" transform="translate(16.6667 16.6665)"/>
</clipPath>
</defs>
</svg>
