<svg width="100" height="100" viewBox="0 0 100 100" fill="none" xmlns="http://www.w3.org/2000/svg">
<circle cx="50" cy="50" r="50" fill="#EEEEEE"/>
<g clip-path="url(#clip0_4_86)">
<path d="M50 22.6721C58.9 22.6721 59.9556 22.7054 63.4695 22.8665C67.1028 23.0332 70.8444 23.8609 73.4917 26.5082C76.1639 29.1804 76.9667 32.8859 77.1333 36.5304C77.2944 40.0443 77.3278 41.0998 77.3278 49.9998C77.3278 58.8998 77.2944 59.9554 77.1333 63.4693C76.9694 67.0832 76.1222 70.8609 73.4917 73.4915C70.8195 76.1637 67.1167 76.9665 63.4695 77.1332C59.9556 77.2943 58.9 77.3276 50 77.3276C41.1 77.3276 40.0444 77.2943 36.5306 77.1332C32.9444 76.9693 29.1167 76.1026 26.5083 73.4915C23.85 70.8332 23.0333 67.0915 22.8667 63.4693C22.7056 59.9554 22.6722 58.8998 22.6722 49.9998C22.6722 41.0998 22.7056 40.0443 22.8667 36.5304C23.0306 32.9304 23.8861 29.1304 26.5083 26.5082C29.175 23.8415 32.8944 23.0332 36.5306 22.8665C40.0444 22.7054 41.1 22.6721 50 22.6721ZM50 16.6665C40.9472 16.6665 39.8111 16.7054 36.2556 16.8665C31.1028 17.1026 25.9861 18.5359 22.2611 22.2609C18.5222 25.9998 17.1028 31.1054 16.8667 36.2554C16.7056 39.8109 16.6667 40.9471 16.6667 49.9998C16.6667 59.0526 16.7056 60.1887 16.8667 63.7443C17.1028 68.8915 18.5417 74.0221 22.2611 77.7387C25.9972 81.4748 31.1111 82.8971 36.2556 83.1332C39.8111 83.2943 40.9472 83.3332 50 83.3332C59.0528 83.3332 60.1889 83.2943 63.7444 83.1332C68.8944 82.8971 74.0167 81.4609 77.7389 77.7387C81.4806 73.9971 82.8972 68.8943 83.1333 63.7443C83.2944 60.1887 83.3333 59.0526 83.3333 49.9998C83.3333 40.9471 83.2944 39.8109 83.1333 36.2554C82.8972 31.1026 81.4611 25.9832 77.7389 22.2609C74.0083 18.5304 68.8806 17.0998 63.7444 16.8665C60.1889 16.7054 59.0528 16.6665 50 16.6665Z" fill="black"/>
<path d="M50 32.8831C40.5472 32.8831 32.8833 40.5469 32.8833 49.9997C32.8833 59.4525 40.5472 67.1164 50 67.1164C59.4528 67.1164 67.1167 59.4525 67.1167 49.9997C67.1167 40.5469 59.4528 32.8831 50 32.8831ZM50 61.1108C43.8639 61.1108 38.8889 56.1358 38.8889 49.9997C38.8889 43.8636 43.8639 38.8886 50 38.8886C56.1361 38.8886 61.1111 43.8636 61.1111 49.9997C61.1111 56.1358 56.1361 61.1108 50 61.1108Z" fill="black"/>
<path d="M67.7944 36.2053C70.0036 36.2053 71.7944 34.4145 71.7944 32.2053C71.7944 29.9962 70.0036 28.2053 67.7944 28.2053C65.5853 28.2053 63.7944 29.9962 63.7944 32.2053C63.7944 34.4145 65.5853 36.2053 67.7944 36.2053Z" fill="black"/>
</g>
<defs>
<clipPath id="clip0_4_86">
<rect width="66.6667" height="66.6667" fill="white" transform="translate(16.6667 16.6665)"/>
</clipPath>
</defs>
</svg>
