<svg width="100" height="105" viewBox="0 0 100 105" fill="none" xmlns="http://www.w3.org/2000/svg">
<circle cx="50" cy="55" r="50" fill="#9D2017"/>
<g clip-path="url(#clip0_40_3)">
<path d="M45.9736 96.0219C47.5032 96.1618 49.0405 95.8537 50.3981 95.1351C51.7557 94.4164 52.8749 93.3183 53.6192 91.9747L83.707 35.7202L82.4359 34.2053C74.97 25.3283 64.2878 19.7751 52.7327 18.7642C41.1777 17.7533 29.6934 21.3671 20.7995 28.8129L19.2891 30.0802L39.1808 90.7943C39.6898 92.227 40.6015 93.4824 41.8064 94.4097C43.0113 95.337 44.4583 95.8968 45.9736 96.0219ZM48.5326 89.1344C48.3341 89.4927 48.0344 89.7846 47.6711 89.9738C47.3077 90.1629 46.8967 90.2408 46.4893 90.1978C46.0953 90.1763 45.716 90.0411 45.3972 89.8086C45.0784 89.576 44.8339 89.2561 44.6931 88.8875L43.0463 83.8576C59.4668 77.5265 51.4778 53.4583 34.594 58.0574L29.9704 43.9622C44.2792 32.0699 58.7533 33.3383 70.7774 47.5365L48.5326 89.1344ZM44.4529 66.0769C45.2476 67.0263 45.803 68.1523 46.0727 69.3607C46.3424 70.569 46.3184 71.8244 46.0028 73.0216C45.6872 74.2187 45.0891 75.3228 44.2587 76.2411C43.4284 77.1594 42.3899 77.8653 41.2305 78.2994L36.4185 63.6122C37.853 63.2098 39.3731 63.2281 40.7975 63.6651C42.2219 64.1021 43.4907 64.9392 44.4529 66.0769ZM26.0757 32.0652C33.5686 26.424 42.8841 23.7554 52.2274 24.5736C61.5706 25.3918 70.2805 29.6389 76.6788 36.4965L73.6912 42.0837C60.4016 27.7023 43.6369 26.2314 28.05 38.0844L26.0757 32.0652Z" fill="#EEEEEE"/>
<path d="M50.3595 45.8909C49.1743 46.8854 48.4328 48.3099 48.2979 49.8511C48.1631 51.3923 48.646 52.9239 49.6405 54.1091C50.6349 55.2942 52.0595 56.0358 53.6007 56.1706C55.1419 56.3055 56.6735 55.8225 57.8587 54.8281C59.0438 53.8336 59.7854 52.4091 59.9202 50.8679C60.0551 49.3267 59.5721 47.795 58.5777 46.6099C57.5832 45.4248 56.1587 44.6832 54.6175 44.5484C53.0763 44.4135 51.5446 44.8964 50.3595 45.8909Z" fill="#EEEEEE"/>
</g>
<defs>
<clipPath id="clip0_40_3">
<rect width="70" height="70" fill="white" transform="translate(99.3091 54.314) rotate(140)"/>
</clipPath>
</defs>
</svg>
