<svg width="100" height="100" viewBox="0 0 100 100" fill="none" xmlns="http://www.w3.org/2000/svg">
<circle cx="50" cy="50" r="50" fill="#EEEEEE"/>
<g clip-path="url(#clip0_4_80)">
<path fill-rule="evenodd" clip-rule="evenodd" d="M73.5083 26.3554C67.2694 20.1109 58.975 16.6693 50.1389 16.6665C31.9306 16.6665 17.1111 31.4832 17.1028 49.6998C17.1 55.5221 18.6222 61.2054 21.5139 66.2165L16.825 83.3332L34.3361 78.7387C39.1611 81.3721 44.5944 82.7582 50.1222 82.7609H50.1361C68.3417 82.7609 83.1639 67.9415 83.1722 49.7248C83.1778 40.8998 79.7444 32.5971 73.5083 26.3554ZM50.1389 77.1804H50.1278C45.2 77.1804 40.3694 75.8554 36.1528 73.3526L35.15 72.7582L24.7583 75.4832L27.5333 65.3498L26.8806 64.3109C24.1306 59.9387 22.6806 54.8859 22.6833 49.6998C22.6889 34.5609 35.0083 22.2443 50.1528 22.2443C57.4861 22.2443 64.3806 25.1054 69.5639 30.2943C74.7472 35.4859 77.6 42.3832 77.5972 49.7193C77.5889 64.8637 65.2722 77.1804 50.1389 77.1804ZM65.2 56.6165C64.375 56.2026 60.3167 54.2054 59.5583 53.9304C58.8028 53.6554 58.2528 53.5165 57.7 54.3415C57.1472 55.1665 55.5694 57.0276 55.0861 57.5804C54.6056 58.1304 54.1222 58.1998 53.2972 57.7859C52.4722 57.3721 49.8111 56.5026 46.6583 53.6887C44.2056 51.4998 42.5472 48.7971 42.0667 47.9693C41.5861 47.1415 42.0167 46.6971 42.4278 46.2859C42.8 45.9165 43.2528 45.3221 43.6667 44.8387C44.0833 44.3609 44.2194 44.0165 44.4972 43.4637C44.7722 42.9137 44.6361 42.4304 44.4278 42.0165C44.2194 41.6054 42.5694 37.5415 41.8833 35.8887C41.2139 34.2776 40.5333 34.4971 40.025 34.4721C39.5444 34.4471 38.9944 34.4443 38.4417 34.4443C37.8917 34.4443 36.9972 34.6498 36.2417 35.4776C35.4861 36.3054 33.3528 38.3026 33.3528 42.3637C33.3528 46.4276 36.3111 50.3526 36.7222 50.9026C37.1333 51.4526 42.5417 59.7915 50.8222 63.3665C52.7917 64.2165 54.3306 64.7248 55.5278 65.1054C57.5056 65.7332 59.3056 65.6443 60.7278 65.4332C62.3139 65.1971 65.6111 63.4359 66.3 61.5082C66.9889 59.5804 66.9889 57.9248 66.7806 57.5832C66.575 57.2359 66.025 57.0304 65.2 56.6165Z" fill="black"/>
</g>
<defs>
<clipPath id="clip0_4_80">
<rect width="66.6667" height="66.6667" fill="white" transform="translate(16.6667 16.6665)"/>
</clipPath>
</defs>
</svg>
